<svg width="48" height="48" viewBox="0 0 48 48" fill="none" xmlns="http://www.w3.org/2000/svg">
<g clip-path="url(#clip0_931_227)">
<path d="M44.8189 19.1955H29.7341C29.5548 19.1955 29.3772 19.1602 29.2116 19.0915C29.0459 19.0229 28.8954 18.9223 28.7687 18.7955C28.6419 18.6686 28.5414 18.5181 28.4728 18.3524C28.4043 18.1867 28.369 18.0091 28.3691 17.8298V2.10751C28.3699 1.83045 28.3158 1.55597 28.2101 1.29987C28.1044 1.04377 27.9491 0.811095 27.7531 0.615232C27.5571 0.41937 27.3244 0.264185 27.0682 0.158602C26.8121 0.0530199 26.5376 -0.000875992 26.2605 1.47759e-05H20.8725C20.5953 -0.0010244 20.3207 0.0527592 20.0644 0.15827C19.8081 0.263782 19.5751 0.418938 19.379 0.61481C19.1829 0.810682 19.0275 1.0434 18.9216 1.29958C18.8158 1.55576 18.7617 1.83034 18.7624 2.10751V17.7248C18.763 17.9181 18.7254 18.1096 18.6517 18.2883C18.5781 18.467 18.4698 18.6294 18.3333 18.7662C18.1967 18.903 18.0344 19.0114 17.8558 19.0853C17.6771 19.1591 17.4857 19.197 17.2924 19.1966L12.3469 19.2143C11.5309 19.2143 10.8574 18.558 10.8746 17.742L10.9099 2.10939C10.9108 1.83209 10.8569 1.55734 10.7512 1.30097C10.6455 1.0446 10.4901 0.81167 10.294 0.615604C10.0979 0.419538 9.86496 0.264206 9.60857 0.158556C9.35218 0.0529053 9.07742 -0.000976135 8.80012 1.47759e-05H3.41249C3.13525 -0.000776943 2.86058 0.0532405 2.60428 0.158961C2.34798 0.264682 2.1151 0.420022 1.91904 0.616048C1.72298 0.812075 1.5676 1.04492 1.46183 1.3012C1.35607 1.55748 1.302 1.83214 1.30274 2.10939V46.1213C1.30274 47.1476 2.13524 48 3.18149 48H44.8189C45.317 47.9994 45.7945 47.8012 46.1466 47.4489C46.4986 47.0966 46.6966 46.619 46.6969 46.1209V21.0731C46.6985 20.8261 46.651 20.5812 46.5572 20.3526C46.4633 20.1241 46.3251 19.9164 46.1503 19.7418C45.9756 19.5671 45.768 19.4289 45.5394 19.3351C45.3108 19.2413 45.0659 19.1939 44.8189 19.1955ZM37.7475 35.7158C37.7454 36.364 37.4869 36.9852 37.0285 37.4435C36.5701 37.9019 35.9489 38.1603 35.3006 38.1623H31.0466C30.3985 38.1601 29.7775 37.9016 29.3192 37.4433C28.8609 36.9849 28.6026 36.3639 28.6005 35.7158V31.4625C28.6026 30.8144 28.8609 30.1934 29.3192 29.735C29.7775 29.2767 30.3985 29.0182 31.0466 29.016H35.3002C35.9485 29.018 36.5696 29.2763 37.028 29.7346C37.4864 30.1929 37.7449 30.8139 37.7471 31.4621L37.7475 35.7158Z" fill="#FF6600"/>
</g>
<defs>
<clipPath id="clip0_931_227">
<rect width="48" height="48" fill="white"/>
</clipPath>
</defs>
</svg>
