<svg width="48" height="48" viewBox="0 0 48 48" fill="none" xmlns="http://www.w3.org/2000/svg">
<g clip-path="url(#clip0_931_225)">
<path d="M43.6695 2.49111C42.9976 4.10403 42.137 5.63167 41.1056 7.04211C36.5883 2.52748 30.4634 -0.00894875 24.0769 -0.00976562C10.869 -0.00976563 3.23328e-09 10.8682 3.23328e-09 24.0907C-5.34564e-05 27.3559 0.662827 30.587 1.94847 33.5884C3.23412 36.5897 5.11576 39.2988 7.47937 41.5515L8.36737 42.339C12.7072 45.998 18.2001 48.0064 23.8766 48.0097C36.4342 48.0097 46.9905 38.1697 47.8845 25.6286C48.5411 19.4895 46.7404 11.7247 43.6695 2.49111ZM10.9001 41.6887C10.7068 41.9269 10.4628 42.119 10.1858 42.2509C9.90891 42.3829 9.60602 42.4514 9.29925 42.4515C8.1675 42.4515 7.24163 41.52 7.24163 40.3882C7.24163 39.2565 8.1735 38.3254 9.29925 38.3254C9.768 38.3254 10.2311 38.4877 10.5938 38.7881C11.4754 39.5006 11.613 40.8071 10.9001 41.6887ZM43.5697 34.4745C37.6286 42.3952 24.9398 39.7256 16.8038 40.107C16.8038 40.107 15.3593 40.1947 13.9084 40.4321C13.9084 40.4321 14.4521 40.2007 15.159 39.9319C20.8687 37.944 23.5702 37.5562 27.0409 35.7746C33.576 32.4487 40.0361 25.1719 41.3809 17.601C38.892 24.8842 31.3496 31.1422 24.477 33.6866C19.7681 35.4247 11.2628 37.1126 11.2628 37.1126L10.9189 36.9311C5.12813 34.1119 4.95262 21.5647 15.4777 17.5136C20.0869 15.738 24.4958 16.7134 29.4739 15.5254C34.7895 14.2627 40.9369 10.2739 43.4381 5.07261C46.2397 13.3939 49.611 26.4221 43.5697 34.4745Z" fill="#77BC1F"/>
</g>
<defs>
<clipPath id="clip0_931_225">
<rect width="48" height="48" fill="white"/>
</clipPath>
</defs>
</svg>
