<svg width="48" height="48" viewBox="0 0 48 48" fill="none" xmlns="http://www.w3.org/2000/svg">
<path d="M24 0L1.56787 7.968L4.98937 37.512L24 48L43.0106 37.512L46.4321 7.968L24 0Z" fill="#DD0031"/>
<path d="M16.7076 8.42365L13.3603 11.7702L18.3812 12.2483L20.0548 8.42328L16.7076 8.42365ZM20.7726 8.42365L18.8676 12.9462L10.252 12.2487L11.6867 18.2235L21.9677 22.0482H23.4025V8.42365H20.7726ZM24.3591 8.42365V22.0482H26.0327L36.3137 18.2232L37.7485 12.2483L28.8943 12.9469L26.9893 8.42365H24.3591ZM27.7063 8.42365L29.38 12.2487L34.4012 11.7702L31.0536 8.42365H27.7063ZM11.9252 19.1798V27.306L17.6638 32.0865V24.6765L19.3371 22.287L17.1853 22.7652L14.5551 20.1357L11.9252 19.1798ZM35.8352 19.1798L33.205 20.136L30.5747 22.7652L28.423 22.287L30.0973 24.6769V32.0869L35.8348 27.306L35.8352 19.1798ZM20.2645 22.2518L18.3572 25.1258V35.9033L19.7878 38.0588L21.4566 39.735H26.2251L27.8938 38.0588L29.3245 35.9033V25.1258L27.4172 22.2518L26.2247 22.9703H21.4577L20.2652 22.2518H20.2645ZM14.5555 30.4133V33.5209L17.6642 36.6278V33.0428L14.5555 30.4133ZM33.2053 30.4133L30.0977 33.0424V36.6274L33.2053 33.5209V30.4133Z" fill="white"/>
</svg>
