<svg width="60" height="48" viewBox="0 0 60 48" fill="none" xmlns="http://www.w3.org/2000/svg">
<g clip-path="url(#clip0_931_120)">
<path d="M12.4622 0C9.03867 0 6.50531 3.00824 6.61875 6.27059C6.72773 9.40471 6.58617 13.4642 5.56828 16.7746C4.54734 20.0946 2.82047 22.1976 0 22.4678V25.5162C2.82047 25.7864 4.54734 27.8894 5.56828 31.2096C6.58617 34.52 6.72773 38.5791 6.61875 41.7134C6.50531 44.9753 9.03867 47.984 12.4627 47.984H47.5423C50.966 47.984 53.4987 44.9758 53.3852 41.7134C53.2765 38.5793 53.4178 34.52 54.4357 31.2096C55.4573 27.8896 57.1795 25.7861 60 25.5162V22.4678C57.1795 22.1976 55.4573 20.0946 54.4359 16.7746C53.4178 13.4647 53.2765 9.40494 53.3852 6.27059C53.4987 3.00871 50.966 0 47.5423 0H12.4617H12.4622ZM40.6781 29.5372C40.6781 34.0294 37.3406 36.7536 31.8019 36.7536H22.373C22.1033 36.7535 21.8447 36.6459 21.6541 36.4545C21.4634 36.263 21.3563 36.0034 21.3563 35.7327V12.2513C21.3563 11.9805 21.4634 11.7208 21.6541 11.5293C21.8448 11.3378 22.1035 11.2302 22.3732 11.2301H31.748C36.3663 11.2301 39.3973 13.7419 39.3973 17.5979C39.3973 20.3045 37.3582 22.7275 34.7606 23.1518V23.2932C38.2971 23.6826 40.6781 26.1412 40.6781 29.5372ZM30.7734 14.4666H25.3976V22.0901H29.9257C33.4259 22.0901 35.3562 20.6751 35.3562 18.1456C35.3562 15.7755 33.6961 14.4666 30.7734 14.4666ZM25.3978 25.1151V33.5162H30.9717C34.6158 33.5162 36.5466 32.0482 36.5466 29.2892C36.5466 26.5296 34.5621 25.1146 30.7373 25.1146H25.3978V25.1151Z" fill="#7E13F8"/>
</g>
<defs>
<clipPath id="clip0_931_120">
<rect width="60" height="48" fill="white"/>
</clipPath>
</defs>
</svg>
