<svg width="48" height="48" viewBox="0 0 48 48" fill="none" xmlns="http://www.w3.org/2000/svg">
<path d="M35.1785 34.5421C35.4729 32.0922 35.3848 31.7326 37.2095 32.1297L37.6727 32.1702C39.0759 32.2339 40.9115 31.9444 41.99 31.4434C44.3117 30.3661 45.6879 28.5679 43.3993 29.0401C38.1778 30.1174 37.8189 28.3493 37.8189 28.3493C43.3325 20.1687 45.6373 9.7838 43.6475 7.24168C38.2213 0.308302 28.8287 3.58693 28.6715 3.67168L28.6213 3.68105C27.5897 3.46693 26.435 3.33905 25.1379 3.31805C22.775 3.27905 20.9822 3.93755 19.622 4.9688C19.622 4.9688 2.8659 -1.93457 3.64553 13.6504C3.81128 16.9658 8.39753 38.7372 13.868 32.1612C15.8675 29.7567 17.7995 27.7234 17.7995 27.7234C18.7588 28.3606 19.9078 28.6861 21.1123 28.5691L21.2057 28.4896C21.1764 28.7881 21.1892 29.0802 21.2428 29.4259C19.8339 31.0006 20.2479 31.2769 17.4305 31.8567C14.5798 32.4439 16.2545 33.4898 17.3477 33.7632C18.6733 34.0947 21.7397 34.5642 23.8119 31.6639L23.7294 31.9947C24.2822 32.4372 24.245 35.1736 24.323 37.1284C24.4014 39.0837 24.5323 40.9081 24.9309 41.9839C25.3295 43.0598 25.7998 45.8299 29.5025 45.0364C32.597 44.3749 34.9629 43.4206 35.1785 34.5421Z" fill="black"/>
<path d="M28.2966 46.9711C26.6589 46.9711 25.5924 46.3377 24.9448 45.7261C23.9672 44.8036 23.5794 43.6152 23.3477 42.9053L23.2476 42.6091C22.7811 41.3498 22.6228 39.5367 22.5291 37.2019C22.5148 36.8513 22.5051 36.4902 22.4942 36.1073C22.4863 35.8272 22.4766 35.4758 22.4623 35.1083C21.8723 35.3896 21.2461 35.5875 20.6016 35.6963C19.4469 35.8936 18.2057 35.8298 16.9116 35.5062C15.9984 35.2778 15.0497 34.8046 14.5089 34.0737C12.9328 35.4541 11.4294 35.2669 10.6104 34.9936C9.16557 34.5117 7.87257 33.1576 6.6572 30.8547C5.79132 29.2141 4.95395 27.0766 4.16795 24.5011C2.7992 20.0161 1.92957 15.2922 1.85232 13.7412C1.60932 8.8868 2.9162 5.41505 5.73582 3.42343C10.1837 0.281677 16.9228 2.1293 19.3798 2.96818C21.0306 1.9733 22.9727 1.48918 25.1672 1.52405C26.3458 1.54318 27.4682 1.64668 28.5107 1.83268C29.5982 1.49068 31.7462 0.999802 34.2051 1.03055C38.7354 1.08455 42.4896 2.85005 45.0609 6.13618C46.8962 8.48068 45.9887 13.4041 45.2848 16.1303C44.2941 19.9651 42.5582 24.0436 40.4259 27.5941C41.0049 27.5982 41.8438 27.5288 43.0363 27.2824C45.3891 26.7968 46.0772 28.0583 46.2639 28.6231C47.0121 30.8888 43.7601 32.6011 42.7457 33.0721C41.4459 33.6754 39.3268 34.0429 37.5913 33.9634L37.5156 33.9586L37.0596 33.9184L37.0146 34.2987L36.9711 34.6703C36.8544 39.1699 36.2117 42.0196 34.8891 43.9024C33.5027 45.8764 31.5759 46.4296 29.8787 46.7933C29.2997 46.9171 28.7736 46.9711 28.2966 46.9711ZM24.8503 30.5944C25.9074 31.4404 26.0001 33.0323 26.0829 36.0072C26.0934 36.3784 26.1032 36.7298 26.1163 37.0579C26.1561 38.0517 26.2494 40.3786 26.6139 41.3618C26.6653 41.5009 26.7114 41.6419 26.7602 41.7916C27.1663 43.0351 27.3699 43.6587 29.1261 43.2833C30.6002 42.9672 31.3581 42.6837 31.9513 41.8392C32.8134 40.6114 33.2957 38.1417 33.3842 34.4986L35.1778 34.5421L33.3966 34.3283L33.4491 33.8836C33.6197 32.4173 33.7427 31.3583 34.7226 30.6578C35.5089 30.0961 36.4048 30.1504 37.1184 30.2791C36.3343 29.6866 36.1176 28.9917 36.0598 28.7067L35.9102 27.9698L36.3306 27.3462C38.7519 23.7537 40.7484 19.3384 41.8089 15.2322C42.8987 11.0131 42.5664 8.77243 42.2342 8.34868C37.8358 2.72855 30.2087 5.04905 29.4122 5.3123L29.2776 5.38505L28.6026 5.51068L28.2568 5.43905C27.3036 5.24105 26.2446 5.13155 25.1094 5.11318C23.3259 5.08318 21.8871 5.50468 20.7073 6.3998L19.8887 7.02043L18.9388 6.6293C16.9093 5.79943 10.9483 4.13105 7.80282 6.35893C6.05682 7.59568 5.26145 10.0189 5.43845 13.5616C5.49695 14.7312 6.29157 19.1588 7.60257 23.4529C9.4142 29.3873 11.0604 31.3587 11.7478 31.5878C11.8678 31.6283 12.1791 31.3864 12.4888 31.0144C13.7804 29.4662 15.1177 27.9568 16.4991 26.4882L17.5378 25.3951L18.7937 26.2294C19.2999 26.5658 19.8583 26.7567 20.4317 26.7927L23.4268 24.2382L22.9929 28.6662C22.9832 28.7656 22.9783 28.9009 23.0173 29.1522L23.1478 29.9914L22.5816 30.6244L22.5163 30.6979L24.1618 31.4573L24.8503 30.5944Z" fill="black"/>
<path d="M43.3989 29.04C38.177 30.1174 37.8182 28.3493 37.8182 28.3493C43.3318 20.1683 45.6365 9.78304 43.6475 7.24166C38.2213 0.308662 28.8279 3.58729 28.6712 3.67241L28.6205 3.68141C27.5889 3.46729 26.4343 3.33979 25.1364 3.31879C22.7735 3.28016 20.9814 3.93829 19.6213 4.96954C19.6213 4.96954 2.86479 -1.93346 3.64404 13.6512C3.80979 16.9669 8.39604 38.7383 13.8665 32.1623C15.866 29.7578 17.7977 27.7245 17.7977 27.7245C18.7573 28.3617 19.9059 28.6872 21.11 28.5702L21.2038 28.4907C21.1745 28.7892 21.188 29.0813 21.2413 29.427C19.832 31.0017 20.246 31.278 17.4287 31.8578C14.5779 32.445 16.2527 33.4909 17.3462 33.7643C18.6714 34.0958 21.7382 34.5653 23.81 31.665L23.7272 31.9958C24.2795 32.4383 24.6673 34.8728 24.6024 37.0797C24.5375 39.2865 24.4937 40.8019 24.929 41.9854C25.364 43.1689 25.7975 45.8314 29.501 45.0379C32.5955 44.3749 34.199 42.6563 34.4225 39.7898C34.5808 37.7517 34.9389 38.0532 34.9618 36.231L35.2494 35.3685C35.5809 32.6059 35.3019 31.7149 37.2088 32.1293L37.6719 32.1698C39.0752 32.2335 40.9115 31.944 41.9897 31.443C44.3109 30.3664 45.6875 28.5679 43.3989 29.04Z" fill="#336791"/>
<path d="M28.484 45.8651C25.397 45.8651 24.419 43.4205 24.0189 42.4207C23.4331 40.9556 23.3067 35.2699 23.4372 30.6071C23.4392 30.5285 23.4566 30.451 23.4887 30.3791C23.5207 30.3073 23.5666 30.2425 23.6237 30.1885C23.6809 30.1344 23.7482 30.0923 23.8217 30.0643C23.8953 30.0364 23.9736 30.0234 24.0522 30.0259C24.1308 30.028 24.2081 30.0456 24.2799 30.0776C24.3516 30.1097 24.4163 30.1556 24.4703 30.2127C24.5243 30.2697 24.5665 30.3369 24.5945 30.4103C24.6225 30.4837 24.6357 30.5619 24.6335 30.6405C24.4831 36.0184 24.6965 40.8918 25.13 41.9763C25.8065 43.6672 26.8325 45.1462 29.7331 44.5249C32.4867 43.9342 33.518 42.8902 33.9774 40.2274C34.3299 38.184 35.027 32.3707 35.1129 31.2236C35.1186 31.1452 35.1398 31.0687 35.1751 30.9985C35.2105 30.9283 35.2593 30.8658 35.3189 30.8145C35.3785 30.7632 35.4476 30.7242 35.5223 30.6997C35.5969 30.6752 35.6757 30.6656 35.7541 30.6716C35.9123 30.6836 36.0592 30.7578 36.1627 30.8781C36.2662 30.9983 36.3178 31.1547 36.3061 31.3129C36.2165 32.5072 35.5227 38.3092 35.1567 40.431C34.6145 43.5761 33.2124 45.0026 29.984 45.6949C29.4354 45.8122 28.937 45.8647 28.484 45.8651ZM11.7455 33.9247C11.4756 33.9239 11.2077 33.8796 10.952 33.7935C8.94686 33.1245 7.03698 29.859 5.27523 24.0866C3.93423 19.6927 3.08448 15.1065 3.00986 13.6158C2.78898 9.19685 3.92673 6.07048 6.39236 4.3241C11.27 0.8681 19.4754 4.1591 19.8222 4.30085C19.9692 4.36087 20.0863 4.47681 20.1477 4.62316C20.2092 4.76951 20.21 4.93428 20.15 5.08123C20.09 5.22817 19.974 5.34526 19.8277 5.40672C19.6813 5.46819 19.5166 5.469 19.3696 5.40898C19.2905 5.37672 11.4222 2.22448 7.08161 5.3021C4.97336 6.79685 4.00548 9.5741 4.20461 13.5562C4.26723 14.8121 5.06111 19.2881 6.41936 23.7371C7.99211 28.8904 9.78198 32.142 11.3304 32.6583C11.5734 32.7393 12.3129 32.9857 13.37 31.7145C14.6027 30.2339 15.8817 28.7924 17.2051 27.3922C17.3158 27.2818 17.4654 27.2191 17.6218 27.2175C17.7782 27.2159 17.929 27.2757 18.0419 27.3839C18.1548 27.4921 18.2209 27.6402 18.2259 27.7965C18.231 27.9528 18.1747 28.1049 18.0691 28.2202C18.0511 28.239 16.2515 30.1203 14.2902 32.4799C13.3614 33.597 12.4711 33.9247 11.7455 33.9247ZM37.7814 28.8829C37.6729 28.8827 37.5665 28.8531 37.4735 28.7971C37.3806 28.7412 37.3046 28.6611 37.2537 28.5653C37.2028 28.4695 37.1788 28.3617 37.1845 28.2533C37.1901 28.145 37.225 28.0402 37.2856 27.9502C42.8592 19.6796 44.8156 9.68623 43.1401 7.54498C41.0311 4.85023 38.0532 3.44285 34.2886 3.36147C31.5012 3.30148 29.2857 4.01323 28.9235 4.13735L28.8324 4.17448C28.4682 4.28885 28.1889 4.08935 28.0835 3.8561C28.0234 3.72246 28.0143 3.57146 28.0579 3.43157C28.1015 3.29168 28.1947 3.17258 28.3201 3.09673C28.3374 3.0866 28.3921 3.06335 28.481 3.03073C29.0964 2.80535 31.3456 2.13035 34.1315 2.16223C38.297 2.20648 41.738 3.8126 44.0817 6.80772C45.1906 8.22485 45.1932 11.4896 44.0889 15.7654C42.9631 20.1247 40.8447 24.8096 38.2775 28.6192C38.1627 28.7906 37.9737 28.8829 37.7814 28.8829ZM38.0664 32.7116C37.1146 32.7116 36.2615 32.5774 35.7507 32.2714C35.2257 31.9567 35.1256 31.5292 35.1125 31.3024C34.9692 28.7861 36.3575 28.3481 37.0655 28.1482C36.9669 27.999 36.8266 27.8235 36.6815 27.6423C36.2686 27.1264 35.7031 26.4199 35.2674 25.3631C35.1991 25.1981 34.9854 24.8145 34.7379 24.3701C33.3957 21.9634 30.6031 16.9552 32.3971 14.3906C33.2274 13.2037 34.8807 12.7365 37.3167 12.9971C36.6001 10.8139 33.1876 3.98435 25.0902 3.8516C22.655 3.8111 20.6577 4.55998 19.157 6.07535C15.797 9.46873 15.9185 15.6086 15.9204 15.6701C15.9224 15.7486 15.909 15.8268 15.8809 15.9002C15.8527 15.9736 15.8104 16.0406 15.7563 16.0977C15.7022 16.1547 15.6375 16.2004 15.5657 16.2324C15.4939 16.2644 15.4165 16.2819 15.338 16.284C15.2594 16.286 15.1812 16.2726 15.1079 16.2445C15.0345 16.2163 14.9674 16.174 14.9104 16.1199C14.8534 16.0658 14.8076 16.0011 14.7757 15.9293C14.7437 15.8575 14.7262 15.7801 14.7241 15.7016C14.7166 15.429 14.5914 8.98572 18.3069 5.2331C20.0457 3.47697 22.3347 2.60998 25.1101 2.65535C30.2904 2.74048 33.6249 5.3741 35.5096 7.56822C37.5642 9.9596 38.5715 12.5974 38.6544 13.4779C38.7162 14.1326 38.2464 14.2635 38.1515 14.283L37.9355 14.2879C35.5449 13.905 34.0111 14.1709 33.377 15.0769C32.0124 17.0272 34.6542 21.7646 35.7822 23.7877C36.0702 24.3037 36.278 24.6768 36.3732 24.9071C36.7437 25.8056 37.2271 26.4094 37.6152 26.8946C37.9569 27.3214 38.2527 27.6915 38.3585 28.1257C38.4076 28.212 39.1047 29.2432 43.2414 28.3894C44.2782 28.1756 44.9 28.3582 45.0901 28.9331C45.464 30.0637 43.3662 31.3826 42.2049 31.9219C41.1642 32.4056 39.5034 32.7116 38.0664 32.7116ZM36.3054 31.2037C36.4366 31.3361 37.0932 31.5645 38.453 31.506C39.662 31.4542 40.937 31.1914 41.702 30.8362C42.6804 30.3817 43.3336 29.8736 43.6719 29.5267L43.4844 29.5612C40.8395 30.1072 38.9686 30.0345 37.9239 29.3449C37.8536 29.2986 37.786 29.2483 37.7214 29.1945C37.6081 29.2391 37.5035 29.2684 37.4289 29.2894C36.8364 29.4555 36.2236 29.6276 36.3054 31.2037ZM19.2196 34.5469C18.5626 34.5469 17.8711 34.4572 17.165 34.2806C16.4334 34.0976 15.2 33.5467 15.2187 32.6418C15.2401 31.6267 16.7165 31.3222 17.2722 31.2079C19.28 30.7942 19.4109 30.6285 20.0382 29.8316C20.2212 29.5995 20.4489 29.3104 20.7594 28.9639C21.2202 28.4479 21.7239 28.1865 22.2564 28.1865C22.6272 28.1865 22.9314 28.3121 23.1324 28.3957C23.7729 28.6612 24.3072 29.3032 24.527 30.0709C24.7254 30.7635 24.6305 31.4302 24.2607 31.9481C23.0469 33.648 21.3035 34.5469 19.2196 34.5469ZM16.5114 32.6932C16.6917 32.8327 17.0532 33.0191 17.4556 33.1196C18.0672 33.2726 18.6605 33.3502 19.22 33.3502C20.9247 33.3502 22.2935 32.6445 23.2876 31.2525C23.495 30.9622 23.4327 30.5936 23.3772 30.3997C23.261 29.9936 22.9722 29.6242 22.6749 29.5009C22.5136 29.4341 22.3797 29.3831 22.2567 29.3831C22.1907 29.3831 21.9897 29.3831 21.6515 29.7615C21.418 30.024 21.1937 30.2944 20.9787 30.5722C20.1972 31.5645 19.8391 31.9012 17.5141 32.3801C16.9467 32.4964 16.6557 32.6149 16.5114 32.6932ZM21.1122 29.9332C20.9694 29.933 20.8313 29.8817 20.723 29.7886C20.6147 29.6955 20.5433 29.5667 20.5216 29.4255C20.5066 29.3262 20.4966 29.2262 20.4916 29.1259C18.9676 29.0974 17.4972 28.4433 16.3809 27.2786C14.9694 25.806 14.327 23.7656 14.6187 21.681C14.9356 19.4171 14.8171 17.4187 14.7534 16.3451C14.7357 16.0466 14.723 15.831 14.7237 15.6817C14.7249 15.4923 14.7286 14.9902 16.4071 14.1394C17.0041 13.8367 18.2011 13.3087 19.5087 13.1734C21.6751 12.9495 23.1031 13.9143 23.5306 15.8906C24.6845 21.2261 23.6221 23.586 22.8462 25.3095C22.7019 25.6305 22.5654 25.9335 22.4562 26.2271L22.3599 26.4859C21.95 27.585 21.5956 28.5345 21.7044 29.2436C21.7163 29.3213 21.7128 29.4005 21.6941 29.4768C21.6754 29.5532 21.6419 29.625 21.5954 29.6884C21.5489 29.7517 21.4904 29.8053 21.4232 29.846C21.356 29.8867 21.2814 29.9138 21.2037 29.9257L21.1122 29.9332ZM15.9241 15.8475L15.9474 16.2746C16.0134 17.3898 16.1364 19.4651 15.8034 21.8471C15.563 23.5665 16.088 25.2446 17.2445 26.4506C18.1584 27.4039 19.361 27.93 20.597 27.93H20.6225C20.7609 27.3469 20.9907 26.7311 21.2382 26.0677L21.3339 25.8105C21.4572 25.479 21.6016 25.158 21.7546 24.8182C22.5012 23.1592 23.4309 21.0941 22.3602 16.1437C22.1484 15.1631 21.6342 14.5957 20.7894 14.4086C19.0539 14.0253 16.4675 15.3307 15.9241 15.8475ZM19.5354 15.5936C19.5054 15.8051 19.9227 16.3699 20.4672 16.4452C21.0106 16.5213 21.4756 16.0796 21.5052 15.8681C21.5349 15.6566 21.1179 15.4233 20.5734 15.3476C20.0289 15.2718 19.5642 15.3821 19.5354 15.5936ZM20.5921 16.6533L20.4395 16.6428C20.102 16.596 19.7607 16.3833 19.5271 16.0736C19.445 15.9648 19.3111 15.7541 19.3377 15.5658C19.3756 15.2898 19.7124 15.1245 20.2377 15.1245C20.3551 15.1245 20.4774 15.1331 20.6004 15.1504C20.8876 15.1901 21.1542 15.273 21.3511 15.3828C21.6924 15.5733 21.7175 15.786 21.7021 15.8958C21.6601 16.2007 21.1752 16.6533 20.5921 16.6533ZM19.7337 15.6288C19.7506 15.7593 20.0739 16.1898 20.4946 16.248L20.5925 16.2547C20.981 16.2547 21.2712 15.9491 21.3054 15.849C21.2694 15.7807 21.0196 15.6112 20.546 15.5452C20.444 15.5308 20.3411 15.5234 20.2381 15.5231C19.9336 15.5231 19.772 15.5917 19.7337 15.6288ZM36.0856 15.162C36.1152 15.3735 35.6982 15.9382 35.1541 16.014C34.6104 16.0897 34.145 15.6483 34.115 15.4368C34.0865 15.2254 34.5035 14.9917 35.0472 14.9163C35.591 14.8402 36.0556 14.9508 36.0856 15.162ZM35.0285 16.122C34.505 16.122 34.0531 15.7147 34.016 15.4503C33.9729 15.1331 34.4952 14.892 35.033 14.8174C35.1515 14.8008 35.2689 14.7926 35.3817 14.7926C35.846 14.7926 36.1535 14.9287 36.1842 15.1485C36.2041 15.2906 36.095 15.51 35.9071 15.708C35.783 15.8381 35.5224 16.0635 35.1672 16.1126L35.0285 16.122ZM35.3821 14.9921C35.2781 14.9921 35.1711 14.9997 35.0611 15.015C34.5207 15.0904 34.1982 15.3071 34.214 15.4234C34.232 15.5512 34.577 15.9228 35.0289 15.9228L35.1402 15.915C35.4354 15.8741 35.657 15.6813 35.7627 15.5703C35.9289 15.396 35.9949 15.2317 35.987 15.1758C35.9765 15.1016 35.777 14.9921 35.3821 14.9921ZM36.869 27.3082C36.7606 27.3083 36.6542 27.2789 36.5612 27.2231C36.4683 27.1674 36.3922 27.0874 36.3412 26.9917C36.2902 26.8961 36.2661 26.7883 36.2717 26.6801C36.2772 26.5718 36.312 26.4671 36.3725 26.3771C37.6467 24.474 37.4135 22.5333 37.1881 20.6565C37.0917 19.857 36.9927 19.0301 37.0182 18.2366C37.0445 17.4202 37.1484 16.7467 37.2485 16.0954C37.3674 15.3236 37.4799 14.5946 37.4334 13.7291C37.4291 13.6507 37.4404 13.5721 37.4665 13.498C37.4926 13.4239 37.533 13.3557 37.5855 13.2972C37.638 13.2388 37.7015 13.1912 37.7723 13.1573C37.8432 13.1234 37.92 13.1037 37.9985 13.0995C38.0769 13.0952 38.1554 13.1065 38.2295 13.1326C38.3036 13.1587 38.3719 13.1992 38.4303 13.2516C38.5484 13.3576 38.6196 13.5062 38.6281 13.6646C38.6814 14.6539 38.5542 15.4788 38.4312 16.2772C38.3364 16.8933 38.2381 17.5305 38.2145 18.2749C38.1916 18.9776 38.2812 19.7239 38.3761 20.5136C38.6161 22.5093 38.888 24.7714 37.367 27.0427C37.3121 27.1244 37.238 27.1914 37.1511 27.2377C37.0643 27.284 36.9674 27.3082 36.869 27.3082Z" fill="white"/>
</svg>
