<svg width="48" height="48" viewBox="0 0 48 48" fill="none" xmlns="http://www.w3.org/2000/svg">
<path d="M7.05541 42.7961L3.28516 0.507019H44.7152L40.9412 42.7898L23.975 47.4934L7.05541 42.7961Z" fill="#1572B6"/>
<path d="M24.0005 43.8982L37.7101 40.0972L40.9355 3.96448H24.0005V43.8982Z" fill="#33A9DC"/>
<path d="M24.0005 19.2859H30.8637L31.3377 13.9748H24.0005V8.78815H37.0062L36.8817 10.1798L35.6067 24.4725H24.0005V19.2859Z" fill="white"/>
<path d="M24.0314 32.7559L24.0085 32.7627L18.2324 31.203L17.863 27.0664H12.6572L13.3836 35.2103L24.0077 38.1589L24.0314 38.1522V32.7559Z" fill="#EBEBEB"/>
<path d="M30.4227 24.2531L29.7979 31.1989L24.0132 32.7604V38.1566L34.6459 35.2099L34.7239 34.3335L35.6262 24.2531H30.4227Z" fill="white"/>
<path d="M24.0181 8.78815V13.9748H11.4901L11.3863 12.8093L11.15 10.1798L11.0259 8.78815H24.0181ZM24.0005 19.2866V24.4733H18.2971L18.1933 23.3078L17.9566 20.6783L17.8329 19.2866H24.0005Z" fill="#EBEBEB"/>
</svg>
