<svg width="48" height="48" viewBox="0 0 48 48" fill="none" xmlns="http://www.w3.org/2000/svg">
<path d="M23.9289 0.384766L1.70752 8.20502L5.21865 37.3189L23.9525 47.6153L42.7828 37.1798L46.2928 8.06664L23.9289 0.384766Z" fill="#B3B3B3"/>
<path d="M44.076 9.74921L23.877 2.86084V45.1552L40.8048 35.7866L44.076 9.74921Z" fill="#A6120D"/>
<path d="M4.2002 9.87336L7.20994 35.9111L23.8764 45.1552V2.86011L4.2002 9.87336Z" fill="#DD1B16"/>
<path d="M29.4371 25.3762L23.8769 27.9765H18.0164L15.2613 34.8667L10.1377 34.962L23.8769 4.39648L29.4371 25.3762ZM28.8993 24.0671L23.9137 14.1967L19.8239 23.8972H23.8766L28.8993 24.0671Z" fill="#F2F2F2"/>
<path d="M23.8765 4.39648L23.9132 14.1967L28.5538 23.9047H23.8866L23.8765 27.9701L30.3298 27.9765L33.3456 34.9627L38.2483 35.0535L23.8765 4.39648Z" fill="#B3B3B3"/>
</svg>
